<?xml version="1.0" encoding="UTF-8" standalone="no"?>
<svg
   xmlns:dc="http://purl.org/dc/elements/1.1/"
   xmlns:cc="http://creativecommons.org/ns#"
   xmlns:rdf="http://www.w3.org/1999/02/22-rdf-syntax-ns#"
   xmlns:svg="http://www.w3.org/2000/svg"
   xmlns="http://www.w3.org/2000/svg"
   xmlns:sodipodi="http://sodipodi.sourceforge.net/DTD/sodipodi-0.dtd"
   xmlns:inkscape="http://www.inkscape.org/namespaces/inkscape"
   version="1.1"
   id="Layer_1"
   x="0px"
   y="0px"
   viewBox="0 0 98.9 22.4"
   style="enable-background:new 0 0 98.9 22.4;"
   xml:space="preserve"
   sodipodi:docname="bumper.svg"
   inkscape:version="1.0.2 (e86c870879, 2021-01-15, custom)"><metadata
   id="metadata3399"><rdf:RDF><cc:Work
       rdf:about=""><dc:format>image/svg+xml</dc:format><dc:type
         rdf:resource="http://purl.org/dc/dcmitype/StillImage" /></cc:Work></rdf:RDF></metadata><defs
   id="defs3397" /><sodipodi:namedview
   pagecolor="#ffffff"
   bordercolor="#666666"
   borderopacity="1"
   objecttolerance="10"
   gridtolerance="10"
   guidetolerance="10"
   inkscape:pageopacity="0"
   inkscape:pageshadow="2"
   inkscape:window-width="1920"
   inkscape:window-height="1017"
   id="namedview3395"
   showgrid="false"
   inkscape:zoom="4.2826214"
   inkscape:cx="-40.448209"
   inkscape:cy="11.2"
   inkscape:window-x="-8"
   inkscape:window-y="-8"
   inkscape:window-maximized="1"
   inkscape:current-layer="g3388"
   inkscape:document-rotation="0" />
<style
   type="text/css"
   id="style3382">
	.st0{fill:#E27600;}
	.st1{fill:#D36900;}
</style>
<g
   id="g3392">
	<g
   id="g3390">
		<g
   id="g3388">
			<path
   class="st0"
   d="M0,15.5c0-0.8,0.4-1.5,1.1-1.9C5.6,10.7,24.5,0,52.6,0c26.9,0,41.1,5.9,45.1,8c0.8,0.4,1.2,1.2,1.2,2     c0,0-9.8-2.9-47.5-2.9C13.6,7.1,0,15.5,0,15.5z"
   id="path3384"
   style="fill:#ca9900;fill-opacity:1" />
			<path
   class="st1"
   d="M0,22.4L0,22.4v-6.9c0,0,13.7-8.4,51.4-8.4c37.8,0,47.5,2.9,47.5,2.9v11l0,0c-7.7-1.3-21.2-2.6-44.1-2.6     C26.3,18.4,8.9,20.7,0,22.4z"
   id="path3386"
   style="fill:#eab200;fill-opacity:1" />
		</g>
	</g>
</g>
</svg>
