<?xml version="1.0" encoding="UTF-8" standalone="no"?>
<svg
   xmlns:dc="http://purl.org/dc/elements/1.1/"
   xmlns:cc="http://creativecommons.org/ns#"
   xmlns:rdf="http://www.w3.org/1999/02/22-rdf-syntax-ns#"
   xmlns:svg="http://www.w3.org/2000/svg"
   xmlns="http://www.w3.org/2000/svg"
   xmlns:sodipodi="http://sodipodi.sourceforge.net/DTD/sodipodi-0.dtd"
   xmlns:inkscape="http://www.inkscape.org/namespaces/inkscape"
   id="Layer_1"
   data-name="Layer 1"
   viewBox="0 0 178.53 104.03"
   version="1.1"
   sodipodi:docname="dpad.svg"
   inkscape:version="1.0.2 (e86c870879, 2021-01-15, custom)">
  <metadata
     id="metadata5887">
    <rdf:RDF>
      <cc:Work
         rdf:about="">
        <dc:format>image/svg+xml</dc:format>
        <dc:type
           rdf:resource="http://purl.org/dc/dcmitype/StillImage" />
      </cc:Work>
    </rdf:RDF>
  </metadata>
  <sodipodi:namedview
     pagecolor="#ffffff"
     bordercolor="#666666"
     borderopacity="1"
     objecttolerance="10"
     gridtolerance="10"
     guidetolerance="10"
     inkscape:pageopacity="0"
     inkscape:pageshadow="2"
     inkscape:window-width="1920"
     inkscape:window-height="1017"
     id="namedview5885"
     showgrid="false"
     inkscape:zoom="5.8365541"
     inkscape:cx="89.264999"
     inkscape:cy="52.014999"
     inkscape:window-x="-8"
     inkscape:window-y="-8"
     inkscape:window-maximized="1"
     inkscape:current-layer="Layer_1" />
  <defs
     id="defs5848">
    <style
       id="style5846">.cls-1,.cls-4{fill:#fff;}.cls-2,.cls-4{opacity:0.25;isolation:isolate;}.cls-3{fill:#e27600;}</style>
  </defs>
  <title
     id="title5850">dpad</title>
  <path
     class="cls-1"
     d="M-745.5,509.6c1.4-2,1.2-2.9,1.2-2.9s0.2-.9-1.2-2.9-15-13.6-15.7-14-28.5-2.2-31.4,1.3-2.6,15.6-2.6,15.6-0.3,12.1,2.6,15.6,30.7,1.7,31.4,1.3S-746.9,511.6-745.5,509.6Z"
     transform="translate(870.02 -488.98)"
     id="path5852" />
  <path
     class="cls-2"
     d="M-745.5,509.6c1.4-2,1.2-2.9,1.2-2.9s0.2-.9-1.2-2.9c-0.9-1.3-6.9-6.6-11.2-10.3a27.84,27.84,0,0,0-3.4,13.2,26.73,26.73,0,0,0,3.4,13.2C-752.4,516.2-746.4,510.9-745.5,509.6Z"
     transform="translate(870.02 -488.98)"
     id="path5854" />
  <path
     class="cls-1"
     d="M-849.4,490.3c-2-1.4-2.9-1.2-2.9-1.2s-0.9-.2-2.9,1.2-13.6,15-14,15.7-2.2,28.5,1.3,31.4,15.6,2.6,15.6,2.6,12.1,0.3,15.6-2.6,1.7-30.7,1.3-31.4S-847.4,491.6-849.4,490.3Z"
     transform="translate(870.02 -488.98)"
     id="path5856" />
  <path
     class="cls-2"
     d="M-849.4,490.3c-2-1.4-2.9-1.2-2.9-1.2s-0.9-.2-2.9,1.2c-1.3.9-6.6,6.9-10.3,11.2a27.84,27.84,0,0,0,13.2,3.4,26.73,26.73,0,0,0,13.2-3.4C-842.8,497.1-848.1,491.1-849.4,490.3Z"
     transform="translate(870.02 -488.98)"
     id="path5858" />
  <path
     class="cls-1"
     d="M-817.8,538.8c2,1.4,2.9,1.2,2.9,1.2s0.9,0.2,2.9-1.2,13.6-15,14-15.7,2.2-28.5-1.3-31.4-15.6-2.6-15.6-2.6-12.1-.3-15.6,2.6-1.7,30.7-1.3,31.4S-819.8,537.4-817.8,538.8Z"
     transform="translate(870.02 -488.98)"
     id="path5860" />
  <path
     class="cls-2"
     d="M-817.8,538.8c2,1.4,2.9,1.2,2.9,1.2s0.9,0.2,2.9-1.2c1.3-.9,6.6-6.9,10.3-11.2a27.84,27.84,0,0,0-13.2-3.4,26.73,26.73,0,0,0-13.2,3.4C-824.4,531.9-819.1,537.9-817.8,538.8Z"
     transform="translate(870.02 -488.98)"
     id="path5862" />
  <path
     class="cls-1"
     d="M-694.1,491.3c-2.9-3.5-30.7-1.7-31.4-1.3s-14.3,12-15.7,14-1.2,2.9-1.2,2.9-0.2.9,1.2,2.9,15,13.6,15.7,14,28.5,2.2,31.4-1.3,2.6-15.6,2.6-15.6S-691.3,494.8-694.1,491.3Z"
     transform="translate(870.02 -488.98)"
     id="path5864" />
  <path
     class="cls-2"
     d="M-730,493.7c-4.3,3.7-10.3,9-11.2,10.3-1.4,2-1.2,2.9-1.2,2.9s-0.2.9,1.2,2.9c0.9,1.3,6.9,6.6,11.2,10.3a27.84,27.84,0,0,0,3.4-13.2A27.84,27.84,0,0,0-730,493.7Z"
     transform="translate(870.02 -488.98)"
     id="path5866" />
  <path
     class="cls-3"
     d="M-745.5,562.6c1.4-2,1.2-2.9,1.2-2.9s0.2-.9-1.2-2.9-15-13.6-15.7-14-28.5-2.2-31.4,1.3-2.6,15.6-2.6,15.6-0.3,12.1,2.6,15.6,30.7,1.7,31.4,1.3S-746.9,564.6-745.5,562.6Z"
     transform="translate(870.02 -488.98)"
     id="path5868"
     style="fill:#eab200;fill-opacity:1" />
  <path
     class="cls-4"
     d="M-745.5,562.6c1.4-2,1.2-2.9,1.2-2.9s0.2-.9-1.2-2.9c-0.9-1.3-6.9-6.6-11.2-10.3a27.84,27.84,0,0,0-3.4,13.2,26.73,26.73,0,0,0,3.4,13.2C-752.4,569.2-746.4,563.9-745.5,562.6Z"
     transform="translate(870.02 -488.98)"
     id="path5870" />
  <path
     class="cls-3"
     d="M-849.4,543.3c-2-1.4-2.9-1.2-2.9-1.2s-0.9-.2-2.9,1.2-13.6,15-14,15.7-2.2,28.5,1.3,31.4,15.6,2.6,15.6,2.6,12.1,0.3,15.6-2.6,1.7-30.7,1.3-31.4S-847.4,544.6-849.4,543.3Z"
     transform="translate(870.02 -488.98)"
     id="path5872"
     style="fill:#eab200;fill-opacity:1" />
  <path
     class="cls-4"
     d="M-849.4,543.3c-2-1.4-2.9-1.2-2.9-1.2s-0.9-.2-2.9,1.2c-1.3.9-6.6,6.9-10.3,11.2a27.84,27.84,0,0,0,13.2,3.4,26.73,26.73,0,0,0,13.2-3.4C-842.8,550.1-848.1,544.1-849.4,543.3Z"
     transform="translate(870.02 -488.98)"
     id="path5874" />
  <path
     class="cls-3"
     d="M-817.8,591.8c2,1.4,2.9,1.2,2.9,1.2s0.9,0.2,2.9-1.2,13.6-15,14-15.7,2.2-28.5-1.3-31.4-15.6-2.6-15.6-2.6-12.1-.3-15.6,2.6-1.7,30.7-1.3,31.4S-819.8,590.4-817.8,591.8Z"
     transform="translate(870.02 -488.98)"
     id="path5876"
     style="fill:#eab200;fill-opacity:1" />
  <path
     class="cls-4"
     d="M-817.8,591.8c2,1.4,2.9,1.2,2.9,1.2s0.9,0.2,2.9-1.2c1.3-.9,6.6-6.9,10.3-11.2a27.84,27.84,0,0,0-13.2-3.4,26.73,26.73,0,0,0-13.2,3.4C-824.4,584.9-819.1,590.9-817.8,591.8Z"
     transform="translate(870.02 -488.98)"
     id="path5878" />
  <path
     class="cls-3"
     d="M-694.1,544.2c-2.9-3.5-30.7-1.7-31.4-1.3s-14.3,12-15.7,14-1.2,2.9-1.2,2.9-0.2.9,1.2,2.9,15,13.6,15.7,14,28.5,2.2,31.4-1.3,2.6-15.6,2.6-15.6S-691.3,547.7-694.1,544.2Z"
     transform="translate(870.02 -488.98)"
     id="path5880"
     style="fill:#eab200;fill-opacity:1" />
  <path
     class="cls-4"
     d="M-730,546.6c-4.3,3.7-10.3,9-11.2,10.3-1.4,2-1.2,2.9-1.2,2.9s-0.2.9,1.2,2.9c0.9,1.3,6.9,6.6,11.2,10.3a27.84,27.84,0,0,0,3.4-13.2A27.84,27.84,0,0,0-730,546.6Z"
     transform="translate(870.02 -488.98)"
     id="path5882" />
</svg>
