<?xml version="1.0" encoding="UTF-8" standalone="no"?>
<svg
   xmlns:dc="http://purl.org/dc/elements/1.1/"
   xmlns:cc="http://creativecommons.org/ns#"
   xmlns:rdf="http://www.w3.org/1999/02/22-rdf-syntax-ns#"
   xmlns:svg="http://www.w3.org/2000/svg"
   xmlns="http://www.w3.org/2000/svg"
   xmlns:sodipodi="http://sodipodi.sourceforge.net/DTD/sodipodi-0.dtd"
   xmlns:inkscape="http://www.inkscape.org/namespaces/inkscape"
   version="1.1"
   id="Layer_1"
   x="0px"
   y="0px"
   viewBox="0 0 28.4 46.7"
   style="enable-background:new 0 0 28.4 46.7;"
   xml:space="preserve"
   sodipodi:docname="start.svg"
   inkscape:version="1.0.2 (e86c870879, 2021-01-15, custom)"
   inkscape:export-filename="C:\Users\Stove Bucks\Documents\dualshock4-overlays\shura\svg\start.png"
   inkscape:export-xdpi="96"
   inkscape:export-ydpi="96"><metadata
   id="metadata304"><rdf:RDF><cc:Work
       rdf:about=""><dc:format>image/svg+xml</dc:format><dc:type
         rdf:resource="http://purl.org/dc/dcmitype/StillImage" /></cc:Work></rdf:RDF></metadata><defs
   id="defs302" /><sodipodi:namedview
   pagecolor="#ffffff"
   bordercolor="#666666"
   borderopacity="1"
   objecttolerance="10"
   gridtolerance="10"
   guidetolerance="10"
   inkscape:pageopacity="0"
   inkscape:pageshadow="2"
   inkscape:window-width="1920"
   inkscape:window-height="1017"
   id="namedview300"
   showgrid="false"
   inkscape:zoom="18.201285"
   inkscape:cx="3.6238235"
   inkscape:cy="18.954706"
   inkscape:window-x="-8"
   inkscape:window-y="-8"
   inkscape:window-maximized="1"
   inkscape:current-layer="g297"
   inkscape:document-rotation="0" />
<style
   type="text/css"
   id="style291">
	.st0{fill:#E27600;}
</style>
<g
   id="g297">
	<path
   d="M14.2,1.7c6.9,0,12.5,5.6,12.5,12.5v18.3c0,6.9-5.6,12.5-12.5,12.5S1.7,39.4,1.7,32.5V14.2C1.7,7.3,7.3,1.7,14.2,1.7    M14.2,0C6.4,0,0,6.4,0,14.2v18.3c0,7.8,6.4,14.2,14.2,14.2s14.2-6.4,14.2-14.2V14.2C28.4,6.4,22,0,14.2,0L14.2,0z"
   id="path293"
   style="fill:#000000;fill-opacity:1" />
	<path
   class="st0"
   d="M14.2,1.7C7.3,1.7,1.7,7.3,1.7,14.2v18.3C1.7,39.4,7.3,45,14.2,45s12.5-5.6,12.5-12.5V14.2   C26.7,7.3,21.1,1.7,14.2,1.7z"
   id="path295"
   style="fill:#eab200;fill-opacity:1" />
</g>
</svg>
