<?xml version="1.0" encoding="UTF-8" standalone="no"?>
<svg
   xmlns:dc="http://purl.org/dc/elements/1.1/"
   xmlns:cc="http://creativecommons.org/ns#"
   xmlns:rdf="http://www.w3.org/1999/02/22-rdf-syntax-ns#"
   xmlns:svg="http://www.w3.org/2000/svg"
   xmlns="http://www.w3.org/2000/svg"
   xmlns:xlink="http://www.w3.org/1999/xlink"
   xmlns:sodipodi="http://sodipodi.sourceforge.net/DTD/sodipodi-0.dtd"
   xmlns:inkscape="http://www.inkscape.org/namespaces/inkscape"
   version="1.1"
   id="Layer_1"
   x="0px"
   y="0px"
   viewBox="0 0 263.9 151.2"
   style="enable-background:new 0 0 263.9 151.2;"
   xml:space="preserve"
   sodipodi:docname="touchpad.svg"
   inkscape:version="1.0.2 (e86c870879, 2021-01-15, custom)"><metadata
   id="metadata2191"><rdf:RDF><cc:Work
       rdf:about=""><dc:format>image/svg+xml</dc:format><dc:type
         rdf:resource="http://purl.org/dc/dcmitype/StillImage" /></cc:Work></rdf:RDF></metadata><defs
   id="defs2189" /><sodipodi:namedview
   pagecolor="#ffffff"
   bordercolor="#666666"
   borderopacity="1"
   objecttolerance="10"
   gridtolerance="10"
   guidetolerance="10"
   inkscape:pageopacity="0"
   inkscape:pageshadow="2"
   inkscape:window-width="1920"
   inkscape:window-height="1017"
   id="namedview2187"
   showgrid="false"
   inkscape:zoom="3.9484654"
   inkscape:cx="131.95"
   inkscape:cy="75.599998"
   inkscape:window-x="-8"
   inkscape:window-y="-8"
   inkscape:window-maximized="1"
   inkscape:current-layer="g2180" />
<style
   type="text/css"
   id="style2152">
	.st0{fill:none;}
	.st1{fill:#E27600;}
	.st2{fill:#D36900;}
	.st3{opacity:0.2;}
	.st4{fill:url(#SVGID_2_);}
</style>
<pattern
   y="151.2"
   width="71"
   height="71"
   patternUnits="userSpaceOnUse"
   id="SVGID_1_"
   viewBox="0 -71 71 71"
   style="overflow:visible;">
	<g
   id="g2170">
		<rect
   y="-71"
   class="st0"
   width="71"
   height="71"
   id="rect2154" />
		<g
   id="g2168">
			<rect
   y="-71"
   class="st0"
   width="71"
   height="71"
   id="rect2156" />
			<g
   id="g2166">
				<rect
   y="-71"
   class="st0"
   width="71"
   height="71"
   id="rect2158" />
				<g
   id="g2164">
					<polygon
   class="st0"
   points="0,0 71,0 71,-71 0,-71      "
   id="polygon2160" />
					<path
   d="M41.8-35.5c0-3.5-2.8-6.3-6.3-6.3s-6.3,2.8-6.3,6.3s2.8,6.3,6.3,6.3S41.8-32,41.8-35.5z"
   id="path2162" />
				</g>
			</g>
		</g>
	</g>
</pattern>
<g
   id="g2184">
	<path
   class="st1"
   d="M263.8,5.6c-0.4-3.2-3.3-5.6-6.5-5.6l0,0H131.9l0,0H6.7l0,0C3.4,0,0.6,2.3,0.2,5.6C0.1,6.3,0.1,7,0.1,7.7   v127.4c0,8.9,7.2,16.1,16.1,16.1H132l0,0h115.8c8.9,0,16.1-7.2,16.1-16.1V7.7C263.8,6.9,263.8,6.2,263.8,5.6z"
   id="path2173"
   style="fill:#eab200;fill-opacity:1" />
	<g
   id="g2182"
   style="opacity:1;stroke:url(#SVGID_1_);stroke-opacity:1">
		<path
   class="st2"
   d="M259.3,1.9c0-1-0.8-1.9-1.9-1.9H131.8l0,0H6.2c-1,0-1.9,0.8-1.9,1.9v6v123.2c0,8.6,7,15.6,15.6,15.6h111.9    l0,0h111.9c8.6,0,15.6-7,15.6-15.6V7.9L259.3,1.9L259.3,1.9z"
   id="path2175"
   style="stroke:url(#SVGID_1_);stroke-opacity:1;fill:#ffd42a;fill-opacity:1" />
		<g
   class="st3"
   id="g2180"
   style="stroke:url(#SVGID_1_);stroke-opacity:1">
			
				<pattern
   id="SVGID_2_"
   xlink:href="#SVGID_1_"
   patternTransform="matrix(0.1017 0 0 -0.1017 -29881.2402 -4069.2605)"
   class="st3"
   style="stroke:url(#SVGID_1_)">
			</pattern>
			<path
   class="st4"
   d="M4.4,131.1c0,8.6,7,15.6,15.6,15.6h111.9l0,0h111.9c8.6,0,15.6-7,15.6-15.6V24.5H4.5L4.4,131.1L4.4,131.1z"
   id="path2178"
   style="stroke:url(#SVGID_1_);stroke-opacity:1;fill:url(#SVGID_2_);fill-opacity:1.0" />
		</g>
	</g>
</g>
</svg>
