<?xml version="1.0" encoding="UTF-8" standalone="no"?>
<svg
   xmlns:dc="http://purl.org/dc/elements/1.1/"
   xmlns:cc="http://creativecommons.org/ns#"
   xmlns:rdf="http://www.w3.org/1999/02/22-rdf-syntax-ns#"
   xmlns:svg="http://www.w3.org/2000/svg"
   xmlns="http://www.w3.org/2000/svg"
   xmlns:sodipodi="http://sodipodi.sourceforge.net/DTD/sodipodi-0.dtd"
   xmlns:inkscape="http://www.inkscape.org/namespaces/inkscape"
   version="1.1"
   id="Layer_1"
   x="0px"
   y="0px"
   viewBox="0 0 199.9 90.8"
   style="enable-background:new 0 0 199.9 90.8;"
   xml:space="preserve"
   sodipodi:docname="triggers.svg"
   inkscape:version="1.0.2 (e86c870879, 2021-01-15, custom)"><metadata
   id="metadata4837"><rdf:RDF><cc:Work
       rdf:about=""><dc:format>image/svg+xml</dc:format><dc:type
         rdf:resource="http://purl.org/dc/dcmitype/StillImage" /></cc:Work></rdf:RDF></metadata><defs
   id="defs4835" /><sodipodi:namedview
   pagecolor="#ffffff"
   bordercolor="#666666"
   borderopacity="1"
   objecttolerance="10"
   gridtolerance="10"
   guidetolerance="10"
   inkscape:pageopacity="0"
   inkscape:pageshadow="2"
   inkscape:window-width="1920"
   inkscape:window-height="1017"
   id="namedview4833"
   showgrid="false"
   inkscape:zoom="5.2126065"
   inkscape:cx="99.949997"
   inkscape:cy="45.400002"
   inkscape:window-x="-8"
   inkscape:window-y="-8"
   inkscape:window-maximized="1"
   inkscape:current-layer="Layer_1" />
<style
   type="text/css"
   id="style4798">
	.st0{fill:#D36900;}
	.st1{fill:#E27600;}
	.st2{opacity:0.22;}
</style>
<g
   id="g4814">
	<g
   id="g4804">
		<path
   class="st0"
   d="M199.9,90.8c0,0-32.7-3.2-50.6-3.2C131.4,87.6,101,90,101,90s3.1-44.7,4.8-52c1.6-7.3,7.7-21.3,16.9-27.9    c9.2-6.7,12-10.1,22.8-10.1s25.4,6.4,34.6,21.4C189.2,36.4,199.9,90.8,199.9,90.8z"
   id="path4800"
   style="fill:#ffcc00;fill-opacity:1" />
		<path
   class="st1"
   d="M101.5,83.2c0,0,26.1-4.4,49-4.4c22.8,0,47.9,4.4,47.9,4.4c1,4.7,1.6,7.6,1.6,7.6s-32.7-3.2-50.6-3.2    S101.1,90,101.1,90S101.1,87.3,101.5,83.2z"
   id="path4802"
   style="fill:#eab200;fill-opacity:1" />
	</g>
	<g
   class="st2"
   id="g4812"
   style="fill:#000000;fill-opacity:1;opacity:1">
		<g
   id="g4808"
   style="fill:#000000;fill-opacity:1">
			<path
   d="M151.5,65.7c-2.1,1.7-3.2,2.6-3.2,2.6c-1.2,1.2-1.9,2.7-2,4.5h9.8v-2.6h-6.2c0.3-0.5,1-1.2,2.1-1.9     c1.4-0.9,2.3-1.6,2.7-2.1c0.9-1,1.3-2.1,1.3-3.3c0-1.4-0.5-2.5-1.4-3.3s-2.1-1.2-3.5-1.2c-3.1,0-4.7,1.7-4.7,5h2.7     c0-1.8,0.7-2.7,2.1-2.7c1.3,0,2,0.7,2,2.1C153.2,63.9,152.6,64.8,151.5,65.7z"
   id="path4806"
   style="fill:#000000;fill-opacity:1" />
		</g>
		<path
   d="M133.9,67.2h3c1.5,0,2.3,0.6,2.4,1.9c0.1,1.2,0.2,2.5,0.3,3.8h3.3v-0.4c-0.5-0.2-0.7-0.7-0.7-1.5c0-0.2,0-0.4,0.1-0.8    v-0.7c0-1.7-0.6-2.9-1.8-3.5c1.4-0.5,2.2-1.6,2.2-3.4c0-1.3-0.4-2.3-1.3-3c-0.8-0.7-1.9-1-3.2-1h-7.3v14.2h3V67.2z M133.9,61h3.7    c1.4,0,2.1,0.6,2.1,1.9s-0.8,1.9-2.3,1.9h-3.5V61z"
   id="path4810"
   style="fill:#000000;fill-opacity:1" />
	</g>
</g>
<g
   id="g4830">
	<g
   id="g4820">
		<path
   class="st0"
   d="M0,90.8c0,0,32.7-3.2,50.6-3.2S98.9,90,98.9,90s-3.1-44.7-4.8-52c-1.6-7.3-7.7-21.3-16.9-27.9S65.2,0,54.4,0    S29,6.4,19.8,21.4C10.7,36.4,0,90.8,0,90.8z"
   id="path4816"
   style="fill:#ffcc00;fill-opacity:1" />
		<path
   class="st1"
   d="M98.4,83.2c0,0-26.1-4.4-49-4.4c-22.8,0-47.9,4.4-47.9,4.4c-1,4.7-1.6,7.6-1.6,7.6s32.7-3.2,50.6-3.2    S98.8,90,98.8,90S98.8,87.3,98.4,83.2z"
   id="path4818"
   style="fill:#eab200;fill-opacity:1" />
	</g>
	<g
   class="st2"
   id="g4828"
   style="opacity:1">
		<g
   id="g4824">
			<path
   d="M64.5,65.7c-2.1,1.7-3.2,2.6-3.2,2.6c-1.2,1.2-1.9,2.7-2,4.5h9.8v-2.6h-6.2c0.3-0.5,1-1.2,2.1-1.9     c1.4-0.9,2.3-1.6,2.7-2.1c0.9-1,1.3-2.1,1.3-3.3c0-1.4-0.5-2.5-1.4-3.3s-2.1-1.2-3.5-1.2c-3.1,0-4.7,1.7-4.7,5h2.7     c0-1.8,0.7-2.7,2.1-2.7c1.3,0,2,0.7,2,2.1C66.2,63.9,65.7,64.8,64.5,65.7z"
   id="path4822" />
		</g>
		<polygon
   points="56,70.2 48.9,70.2 48.9,58.5 45.9,58.5 45.9,72.8 56,72.8   "
   id="polygon4826" />
	</g>
</g>
</svg>
