<?xml version="1.0" encoding="utf-8"?>
<!-- Generator: Adobe Illustrator 19.2.1, SVG Export Plug-In . SVG Version: 6.00 Build 0)  -->
<svg version="1.1" id="Layer_1" xmlns="http://www.w3.org/2000/svg" xmlns:xlink="http://www.w3.org/1999/xlink" x="0px" y="0px"
	 viewBox="0 0 224 112.3" style="enable-background:new 0 0 224 112.3;" xml:space="preserve">
<style type="text/css">
	.st0{fill:#2C2C2C;}
	.st1{fill:#222222;}
	.st2{fill:#7CB2E8;}
	.st3{fill:#EAB200;}
	.st4{fill:#FF69F8;}
	.st5{fill:#40E2A0;}
	.st6{fill:#FCFCFC;}
	.st7{fill:#FFFFFF;}
</style>
<g>
	<g>
		<path class="st0" d="M26.3,53.7C11.8,53.7,0,41.9,0,27.4S11.8,1.1,26.3,1.1s26.3,11.8,26.3,26.3S40.8,53.7,26.3,53.7z"/>
		<path class="st1" d="M26.3,2.1c13.9,0,25.3,11.3,25.3,25.3c0,13.9-11.3,25.3-25.3,25.3S1,41.4,1,27.4C1,13.5,12.4,2.1,26.3,2.1
			 M26.3,0.1C11.3,0.1-1,12.4-1,27.4s12.2,27.3,27.3,27.3s27.3-12.2,27.3-27.3C53.5,12.4,41.3,0.1,26.3,0.1L26.3,0.1z"/>
	</g>
	<polygon class="st2" points="40.7,15 38.7,13 26.3,25.4 13.9,13 11.9,15 24.3,27.4 11.9,39.9 13.9,41.9 26.3,29.4 38.7,41.9 
		40.7,39.9 28.3,27.4 	"/>
</g>
<g>
	<g>
		<path class="st0" d="M82.8,53.6c-14.5,0-26.3-11.8-26.3-26.3S68.3,1.1,82.8,1.1S109,12.9,109,27.4S97.3,53.6,82.8,53.6z"/>
		<path class="st1" d="M82.8,2.2c13.9,0,25.3,11.3,25.3,25.3S96.8,52.8,82.8,52.8S57.5,41.5,57.5,27.5S68.9,2.2,82.8,2.2 M82.8,0.2
			c-15,0-27.3,12.2-27.3,27.3s12.2,27.3,27.3,27.3S110,42.4,110,27.4S97.8,0.2,82.8,0.2L82.8,0.2z"/>
	</g>
	<path class="st3" d="M82.8,8.5c-10.4,0-18.9,8.5-18.9,18.9s8.5,18.9,18.9,18.9s18.9-8.5,18.9-18.9C101.7,17,93.2,8.5,82.8,8.5z
		 M82.8,43.4c-8.9,0-16-7.2-16-16c0-8.9,7.2-16,16-16s16,7.2,16,16C98.8,36.4,91.7,43.4,82.8,43.4z"/>
</g>
<g>
	<g>
		<path class="st0" d="M139.2,53.5c-14.5,0-26.3-11.8-26.3-26.3s11.8-26.3,26.3-26.3s26.3,11.8,26.3,26.3S153.7,53.5,139.2,53.5z"/>
		<path class="st1" d="M139.2,2.1c13.9,0,25.3,11.3,25.3,25.3c0,13.9-11.3,25.3-25.3,25.3s-25.3-11.3-25.3-25.3S125.3,2.1,139.2,2.1
			 M139.2,0.1c-15,0-27.3,12.2-27.3,27.3c0,15,12.2,27.3,27.3,27.3s27.3-12.2,27.3-27.3C166.4,12.3,154.2,0.1,139.2,0.1L139.2,0.1z"
			/>
	</g>
	<path class="st4" d="M150.7,12.9h-23h-2.8v2.8v23v2.8h2.8h23h2.8v-2.8v-23v-2.8C153.5,12.9,150.7,12.9,150.7,12.9z M150.7,38.8h-23
		v-23h23V38.8z"/>
</g>
<g>
	<g>
		<g>
			<path class="st0" d="M195.7,53.5c-14.5,0-26.3-11.8-26.3-26.3s11.8-26.3,26.3-26.3S222,12.7,222,27.2S210.2,53.5,195.7,53.5z"/>
			<path class="st1" d="M195.7,2C209.6,2,221,13.3,221,27.3s-11.3,25.3-25.3,25.3s-25.3-11.3-25.3-25.3S181.8,2,195.7,2 M195.7,0
				c-15,0-27.3,12.2-27.3,27.3s12.2,27.3,27.3,27.3S223,42.4,223,27.3S210.7,0,195.7,0L195.7,0z"/>
		</g>
		<path class="st5" d="M211.7,35.3l-16-27.6l-16,27.6l-1.6,2.8h3.3h14.3H210h3.3L211.7,35.3z M195.7,35.3H183l12.7-21.9l12.7,21.9
			H195.7z"/>
	</g>
</g>
<g>
	<g>
		<path class="st0" d="M27.3,111.3C12.8,111.3,1,99.5,1,85s11.8-26.3,26.3-26.3S53.5,70.5,53.5,85S41.8,111.3,27.3,111.3z"/>
		<path class="st6" d="M27.3,59.8C41.2,59.8,52.5,71,52.5,85s-11.3,25.3-25.3,25.3S2,99,2,85S13.4,59.8,27.3,59.8 M27.3,57.8
			C12.3,57.8,0,70,0,85s12.2,27.3,27.3,27.3S54.5,100.1,54.5,85S42.3,57.8,27.3,57.8L27.3,57.8z"/>
	</g>
	<polygon class="st3" points="41.7,72.7 39.7,70.7 27.3,83 14.9,70.7 12.9,72.7 25.3,85 12.9,97.5 14.9,99.5 27.3,87 39.7,99.5 
		41.7,97.5 29.3,85 	"/>
</g>
<g>
	<g>
		<path class="st0" d="M83.8,111.2c-14.5,0-26.3-11.8-26.3-26.3s11.8-26.3,26.3-26.3S110,70.4,110,84.9S98.3,111.2,83.8,111.2z"/>
		<path class="st7" d="M83.8,59.8C97.7,59.8,109,71,109,85s-11.3,25.3-25.3,25.3S58.5,99,58.5,85S69.9,59.8,83.8,59.8 M83.8,57.8
			c-15,0-27.3,12.2-27.3,27.3s12.2,27.3,27.3,27.3S111,100.1,111,85S98.8,57.8,83.8,57.8L83.8,57.8z"/>
	</g>
	<path class="st3" d="M83.8,66c-10.5,0-19,8.5-19,19s8.5,18.9,18.9,18.9s18.9-8.5,18.9-18.9S94.2,66,83.8,66z M83.8,101
		c-8.9,0-16-7.2-16-16c0-8.9,7.2-16,16-16s16,7.2,16,16S92.7,101,83.8,101z"/>
</g>
<g>
	<g>
		<path class="st0" d="M140.3,111.2c-14.5,0-26.3-11.8-26.3-26.3s11.8-26.3,26.3-26.3s26.3,11.8,26.3,26.3S154.8,111.2,140.3,111.2z
			"/>
		<path class="st6" d="M140.3,59.8c13.9,0,25.3,11.3,25.3,25.3s-11.3,25.3-25.3,25.3S115,99,115,85S126.4,59.8,140.3,59.8
			 M140.3,57.8C125.3,57.8,113,70,113,85s12.2,27.3,27.3,27.3s27.3-12.2,27.3-27.3S155.3,57.8,140.3,57.8L140.3,57.8z"/>
	</g>
	<path class="st3" d="M151.8,70.5h-23H126v2.8v23v2.8h2.8h23h2.8v-2.8v-23v-2.8H151.8z M151.8,96.5h-23v-23h23V96.5z"/>
</g>
<g>
	<g>
		<g>
			<g>
				<path class="st0" d="M196.8,111.3c-14.5,0-26.3-11.8-26.3-26.3s11.8-26.3,26.3-26.3S223,70.5,223,85S211.3,111.3,196.8,111.3z"
					/>
				<path class="st6" d="M196.8,59.8C210.7,59.8,222,71,222,85s-11.3,25.3-25.3,25.3S171.5,99,171.5,85S182.9,59.8,196.8,59.8
					 M196.8,57.8c-15,0-27.3,12.2-27.3,27.3s12.2,27.3,27.3,27.3S224,100.1,224,85S211.8,57.8,196.8,57.8L196.8,57.8z"/>
			</g>
			<path class="st3" d="M212.8,93l-16-27.6l-16,27.6l-1.6,2.8h3.3h14.3H211h3.3L212.8,93z M196.8,93H184l12.8-22l12.7,22H196.8z"/>
		</g>
	</g>
</g>
</svg>
