<?xml version="1.0" encoding="utf-8"?>
<!-- Generator: Adobe Illustrator 19.2.1, SVG Export Plug-In . SVG Version: 6.00 Build 0)  -->
<svg version="1.1" id="Layer_1" xmlns="http://www.w3.org/2000/svg" xmlns:xlink="http://www.w3.org/1999/xlink" x="0px" y="0px"
	 viewBox="0 0 286 94" style="enable-background:new 0 0 286 94;" xml:space="preserve">
<style type="text/css">
	.st0{fill:#EDEDED;}
	.st1{fill:#FFFFFF;}
	.st2{fill:#D36900;}
	.st3{fill:#E27600;}
	.st4{opacity:0.18;}
</style>
<g>
	<g>
		<g>
			<g>
				<path class="st0" d="M47,92.5C21.9,92.5,1.5,72.1,1.5,47S21.9,1.5,47,1.5S92.5,21.9,92.5,47S72.1,92.5,47,92.5z"/>
				<g>
					<path class="st1" d="M47,3c24.3,0,44,19.7,44,44S71.3,91,47,91S3,71.3,3,47S22.7,3,47,3 M47,0C21,0,0,21,0,47s21,47,47,47
						s47-21,47-47S73,0,47,0L47,0z"/>
				</g>
			</g>
			<circle class="st1" cx="47" cy="47" r="27.3"/>
		</g>
	</g>
	<g>
		<g>
			<path class="st2" d="M143,92.5c-25.1,0-45.5-20.4-45.5-45.5S117.9,1.5,143,1.5s45.5,20.4,45.5,45.5S168.1,92.5,143,92.5z"/>
			<g>
				<path class="st3" d="M143,3c24.3,0,44,19.7,44,44s-19.7,44-44,44S99,71.3,99,47S118.7,3,143,3 M143,0c-26,0-47,21-47,47
					s21,47,47,47s47-21,47-47S169,0,143,0L143,0z"/>
			</g>
		</g>
		<circle class="st3" cx="143" cy="47" r="27.3"/>
		<g class="st4">
			<path d="M129.7,36.8h3.5v16.9h10.1v3h-13.6V36.8z"/>
			<path d="M150,45.3c2.1,0.1,4.3-0.7,4.3-3.1c0-1.7-1.3-2.8-3-2.8c-2.2,0-3.3,2-3.3,4h-3.2c0.2-3.8,2.6-6.7,6.5-6.7
				c3,0,6.2,1.7,6.2,5.2c0,2-0.8,3.6-2.8,4.2v0.1c2.3,0.5,3.6,2.3,3.6,4.9c0,3.7-3.3,6-7,6c-4.5,0-6.8-2.7-6.9-6.8h3.2
				c-0.1,2.3,1.2,4.2,3.7,4.2c2.1,0,3.8-1.3,3.8-3.5c0-3-2.6-3.4-5.1-3.3V45.3L150,45.3z"/>
		</g>
	</g>
	<g>
		<g>
			<path class="st2" d="M239,92.5c-25.1,0-45.5-20.4-45.5-45.5S213.9,1.5,239,1.5s45.5,20.4,45.5,45.5S264.1,92.5,239,92.5z"/>
			<g>
				<path class="st3" d="M239,3c24.3,0,44,19.7,44,44s-19.7,44-44,44s-44-19.7-44-44S214.7,3,239,3 M239,0c-26,0-47,21-47,47
					s21,47,47,47s47-21,47-47S265,0,239,0L239,0z"/>
			</g>
		</g>
		<circle class="st3" cx="239" cy="47" r="27.3"/>
		<g class="st4">
			<path d="M224.8,37.4h8.9c4.1,0,6.2,1.9,6.2,5c0,3.6-2.5,4.5-3.1,4.8v0.1c1.1,0.1,2.8,1,2.8,4c0,2.2,0.3,4.2,1,5H237
				c-0.5-0.8-0.5-1.8-0.5-2.8c0-3.4-0.7-5-3.8-5h-4.8v7.7h-3.3V37.4H224.8z M228.1,46h5.4c2.1,0,3.2-1,3.2-3c0-2.4-1.6-2.8-3.3-2.8
				h-5.3L228.1,46L228.1,46z"/>
			<path d="M247.3,45.4c2,0.1,4-0.6,4-2.9c0-1.6-1.2-2.6-2.8-2.6c-2.1,0-3.1,1.8-3.1,3.8h-3c0.1-3.6,2.4-6.2,6.1-6.2
				c2.8,0,5.8,1.6,5.8,4.9c0,1.8-0.8,3.3-2.6,3.9v0.1c2.1,0.4,3.3,2.2,3.3,4.6c0,3.5-3.1,5.6-6.5,5.6c-4.3,0-6.4-2.6-6.5-6.4h3
				c-0.1,2.2,1.1,3.9,3.5,3.9c2,0,3.6-1.2,3.6-3.3c0-2.8-2.4-3.2-4.8-3.1V45.4L247.3,45.4z"/>
		</g>
	</g>
</g>
</svg>
